<svg width="614" height="495" viewBox="0 0 614 495" fill="none" xmlns="http://www.w3.org/2000/svg">
<ellipse rx="238.014" ry="219" transform="matrix(-1 0 0 1 292.038 247.999)" fill="#FFE5D2"/>
<path fill-rule="evenodd" clip-rule="evenodd" d="M489.694 343.693C489.797 343.634 490.435 344.464 491.379 346.098C492.327 347.726 493.507 350.2 494.603 353.391C496.85 359.752 498.261 369.142 497.425 379.382C496.595 389.621 494.191 398.609 492.336 405.006C490.438 411.407 489.041 415.292 488.8 415.226C488.534 415.154 489.477 411.134 491.034 404.671C492.552 398.209 494.717 389.269 495.528 379.24C496.343 369.214 495.183 360.088 493.319 353.779C491.508 347.439 489.395 343.846 489.694 343.693" fill="white"/>
<path fill-rule="evenodd" clip-rule="evenodd" d="M496.104 292.449C496.223 292.397 496.995 293.789 498.284 296.354C499.572 298.92 501.381 302.659 503.521 307.325C507.767 316.656 513.482 329.719 517.626 344.883C519.664 352.469 521.053 359.844 521.756 366.616C522.465 373.387 522.537 379.539 522.182 384.674C521.839 389.811 521.18 393.933 520.546 396.736C519.919 399.544 519.422 401.057 519.31 401.032C518.958 400.966 520.51 394.783 520.84 384.612C521.249 374.462 519.895 360.36 515.788 345.366C511.69 330.366 506.21 317.297 502.286 307.85C500.311 303.123 498.713 299.296 497.607 296.652C496.527 293.996 495.983 292.502 496.104 292.449" fill="white"/>
<path fill-rule="evenodd" clip-rule="evenodd" d="M258.901 352.594C259.121 352.827 256.964 354.852 254.165 358.612C253.47 359.556 252.715 360.589 252.009 361.769C251.237 362.905 250.565 364.209 249.818 365.556C248.428 368.3 247.109 371.419 246.091 374.815C245.118 378.223 244.55 381.554 244.244 384.607C244.152 386.137 244.016 387.594 244.055 388.959C244.016 390.328 244.096 391.6 244.174 392.763C244.513 397.411 245.247 400.255 244.934 400.338C244.744 400.402 243.537 397.655 242.836 392.898C242.669 391.71 242.508 390.405 242.478 388.992C242.37 387.58 242.447 386.07 242.496 384.48C242.715 381.31 243.252 377.834 244.264 374.297C245.319 370.77 246.74 367.546 248.27 364.748C249.087 363.374 249.836 362.055 250.691 360.917C251.479 359.736 252.322 358.714 253.106 357.795C256.269 354.134 258.776 352.442 258.901 352.594" fill="white"/>
<path fill-rule="evenodd" clip-rule="evenodd" d="M263.963 369C264.122 369.251 262.921 370.156 261.351 371.886C260.556 372.741 259.719 373.849 258.895 375.132C258.106 376.438 257.35 377.935 256.756 379.587C256.188 381.246 255.847 382.884 255.651 384.393C255.495 385.903 255.46 387.282 255.552 388.438C255.704 390.752 256.085 392.195 255.801 392.296C255.597 392.381 254.742 391.06 254.219 388.614C253.946 387.395 253.834 385.901 253.904 384.247C254.015 382.598 254.336 380.79 254.958 378.976C255.604 377.171 256.485 375.553 257.43 374.187C258.409 372.84 259.433 371.734 260.411 370.939C262.354 369.329 263.855 368.808 263.963 369" fill="white"/>
<path fill-rule="evenodd" clip-rule="evenodd" d="M193.688 216.107C193.786 216.022 194.637 216.847 196.098 218.419C196.84 219.197 197.716 220.177 198.644 221.386C199.581 222.583 200.708 223.913 201.765 225.512C202.311 226.301 202.884 227.127 203.479 227.988C204.069 228.854 204.603 229.803 205.199 230.761C206.417 232.663 207.509 234.81 208.697 237.051C210.94 241.595 213.084 246.753 214.792 252.343C216.445 257.951 217.495 263.429 218.122 268.442C218.361 270.958 218.63 273.346 218.657 275.593C218.686 276.716 218.761 277.798 218.745 278.841C218.721 279.882 218.696 280.881 218.674 281.835C218.668 283.745 218.457 285.462 218.332 286.971C218.22 288.481 218.026 289.771 217.832 290.82C217.475 292.923 217.216 294.07 217.086 294.052C216.751 294.009 217.382 289.35 217.33 281.821C217.312 280.88 217.295 279.896 217.277 278.869C217.255 277.843 217.144 276.777 217.082 275.675C216.988 273.466 216.664 271.123 216.383 268.656C215.67 263.741 214.59 258.379 212.968 252.875C211.29 247.388 209.237 242.308 207.12 237.8C205.995 235.579 204.972 233.44 203.832 231.535C203.274 230.575 202.779 229.623 202.232 228.749C201.68 227.879 201.151 227.042 200.645 226.244C196.533 219.895 193.429 216.324 193.688 216.107" fill="white"/>
<path fill-rule="evenodd" clip-rule="evenodd" d="M215.226 224.878C215.388 224.737 217.572 226.748 220.351 230.624C221.749 232.554 223.222 234.986 224.656 237.791C226.049 240.614 227.378 243.82 228.438 247.295C229.467 250.779 230.12 254.183 230.51 257.298C230.854 260.42 230.96 263.249 230.851 265.617C230.658 270.356 229.934 273.214 229.721 273.181C229.415 273.144 229.66 270.251 229.505 265.616C229.443 263.299 229.201 260.548 228.773 257.523C228.298 254.503 227.612 251.211 226.615 247.826C225.583 244.451 224.342 241.32 223.074 238.532C221.763 235.762 220.447 233.324 219.221 231.344C216.791 227.37 214.99 225.073 215.226 224.878" fill="white"/>
<path fill-rule="evenodd" clip-rule="evenodd" d="M139.807 378.076L138.152 374.748L92.0579 409.414L112.167 441.479L158.05 403.4L139.807 378.076Z" fill="#FF7B5B"/>
<path fill-rule="evenodd" clip-rule="evenodd" d="M93.9895 410.155L111.655 440.226L112.785 439.73L97.0531 411.613L93.9895 410.155Z" fill="#D7D4D4"/>
<path fill-rule="evenodd" clip-rule="evenodd" d="M138.897 377.417L93.9895 410.154C93.9895 410.154 94.1778 410.857 95.2922 411.291C96.408 411.724 97.0531 411.614 97.0531 411.614L144.265 379.808C144.265 379.808 141.544 379.186 140.557 378.461C139.568 377.733 138.897 377.417 138.897 377.417" fill="#F5F3F3"/>
<path fill-rule="evenodd" clip-rule="evenodd" d="M145.42 378.526L96.21 410.879L112.192 440.693L114.767 444.822L163.979 408.972C163.979 408.972 158.796 401.358 155.683 396.76C152.571 392.163 146.462 381.32 146.13 380.625C145.796 379.93 145.42 378.526 145.42 378.526" fill="#FF7B5B"/>
<path fill-rule="evenodd" clip-rule="evenodd" d="M551.239 155.165L552.629 152.371L591.336 181.481L574.45 208.408L535.92 176.431L551.239 155.165Z" fill="#775298"/>
<path fill-rule="evenodd" clip-rule="evenodd" d="M589.714 182.103L574.881 207.354L573.931 206.938L587.142 183.328L589.714 182.103Z" fill="#D7D4D4"/>
<path fill-rule="evenodd" clip-rule="evenodd" d="M552.005 154.611L589.715 182.102C589.715 182.102 589.555 182.692 588.621 183.056C587.684 183.42 587.141 183.327 587.141 183.327L547.496 156.62C547.496 156.62 549.781 156.098 550.611 155.487C551.44 154.877 552.005 154.611 552.005 154.611" fill="#F5F3F3"/>
<path fill-rule="evenodd" clip-rule="evenodd" d="M546.527 155.543L587.85 182.71L574.43 207.747L572.267 211.214L530.941 181.109C530.941 181.109 535.295 174.714 537.908 170.854C540.523 166.994 545.652 157.888 545.93 157.305C546.21 156.723 546.527 155.543 546.527 155.543" fill="#775298"/>
<path fill-rule="evenodd" clip-rule="evenodd" d="M84.7771 102.772C84.7771 102.772 81.8547 104.763 83.3152 108.082C84.7771 111.401 91.1839 121.248 99.8389 120.915C100.193 120.903 88.9357 102.772 88.9357 102.772H84.7771Z" fill="#FF7B5B"/>
<path fill-rule="evenodd" clip-rule="evenodd" d="M71.537 284.293C71.537 284.293 60.714 274.777 57.249 276.481C53.0156 278.565 28.7851 301.933 29.732 312.941C30.121 317.45 35.4536 313.587 44.9558 303.885C54.4609 294.185 66.4287 298.342 66.4287 298.342L71.537 284.293Z" fill="#775298"/>
<path fill-rule="evenodd" clip-rule="evenodd" d="M97.8323 300.343L84.7667 292.628C84.7667 292.628 50.8997 323.88 56.1907 328.047C60.204 331.207 62.5629 328.372 72.0666 318.67C81.5688 308.971 93.6086 314.548 93.6086 314.548L97.8323 300.343Z" fill="#775298"/>
<path fill-rule="evenodd" clip-rule="evenodd" d="M177.645 197.525L180.095 231.771L125.706 217.824L177.645 197.525Z" fill="#F3A683"/>
<path fill-rule="evenodd" clip-rule="evenodd" d="M125.706 219.002C125.706 219.002 173.281 221.954 179.616 219.873C179.616 219.873 188.913 309.776 172.37 319.475C155.826 329.177 118.7 314.972 118.7 314.972L128.724 295.57L150.337 294.185V259.54L148.786 259.886L125.706 219.002Z" fill="#112129"/>
<path fill-rule="evenodd" clip-rule="evenodd" d="M66.0699 280.326C66.0699 280.326 54.1035 285.177 57.9756 296.957C57.9756 296.957 98.8239 328.485 118.701 321.208C129.836 317.133 141.799 286.035 150.167 259.466L179.617 219.873C179.617 219.873 165.727 220.557 161.094 220.539C152.238 220.507 125.707 219.002 125.707 219.002C125.707 219.002 111.848 290.375 106.91 292.106C101.972 293.837 66.0699 280.326 66.0699 280.326" fill="#22343D"/>
<path fill-rule="evenodd" clip-rule="evenodd" d="M136.793 129.486C136.793 129.486 165.305 103.155 170.232 96.2242C175.159 89.2952 185.721 66.0827 198.741 56.382L192.407 43.2162C192.407 43.2162 196.28 41.1382 198.741 46.6801C198.741 46.6801 207.892 28.666 210.005 29.0107C212.118 29.3569 205.782 42.8701 205.782 42.8701C205.782 42.8701 214.584 30.3965 217.047 30.744C219.508 31.0901 210.711 44.7656 210.711 44.7656C210.711 44.7656 220.564 33.5156 221.974 34.9014C223.382 36.2872 214.23 44.7656 214.23 44.7656C214.23 44.7656 224.085 39.1965 225.141 41.0319C226.197 42.8701 215.286 47.7198 215.286 47.7198C215.286 47.7198 214.23 55.6885 207.543 59.1523C207.543 59.1523 194.302 94.3656 182.334 105.798L143.889 145.127L136.793 129.486Z" fill="#FFC6B2"/>
<path fill-rule="evenodd" clip-rule="evenodd" d="M102.757 143.133C102.757 143.133 75.7415 170.95 68.6564 175.734C61.5698 180.517 37.8903 190.697 27.9146 203.424L14.5985 197.065C14.5985 197.065 12.4513 200.856 18.0594 203.332C18.0594 203.332 -0.329084 212.171 0.00454666 214.255C0.335409 216.337 14.1223 210.227 14.1223 210.227C14.1223 210.227 1.36814 218.773 1.69762 221.2C2.0271 223.627 16.0008 215.094 16.0008 215.094C16.0008 215.094 4.48018 224.688 5.87562 226.086C7.26829 227.486 15.969 218.559 15.969 218.559C15.969 218.559 10.2184 228.207 12.0762 229.263C13.9312 230.319 18.9606 219.625 18.9606 219.625C18.9606 219.625 27.0646 218.663 30.6487 212.111C30.6487 212.111 64.5337 198.841 76.262 187.168L118.43 157.758L102.757 143.133Z" fill="#FFC6B2"/>
<path fill-rule="evenodd" clip-rule="evenodd" d="M112.885 132.046L99.2216 145.212L102.687 160.054C102.687 160.054 116.148 191.865 118.183 199.625C121.346 211.693 116.23 230.092 116.23 230.092C116.23 230.092 139.051 228.227 159.816 227.535C180.58 226.841 187.373 220.257 187.373 220.257C187.373 220.257 169.37 161.235 156.94 144.737C144.508 128.241 139.987 123.076 139.987 123.076L121.684 127.014L112.885 132.046Z" fill="white"/>
<path fill-rule="evenodd" clip-rule="evenodd" d="M152.986 142.791L167.223 133.837C167.223 133.837 169.397 124.244 152.229 112.929L132.096 125.347L152.986 142.791Z" fill="white"/>
<path fill-rule="evenodd" clip-rule="evenodd" d="M102.101 144.171C94.2959 145.249 80.0328 164.72 78.4422 164.683C78.4422 164.683 88.4802 180.807 96.432 181.33C96.432 181.33 131.424 140.123 102.101 144.171" fill="white"/>
<path fill-rule="evenodd" clip-rule="evenodd" d="M129.652 131.502C129.652 131.502 118.308 123.159 118.701 119.833C118.8 118.995 120.373 117.635 120.782 116.427C122.981 109.932 112.376 93.1944 105.859 89.6665C100.733 86.8922 102.98 86.6469 92.1917 92.9573C81.4034 99.2676 87.5499 110.18 92.3675 115.824C96.9221 121.158 102.138 123.444 106.831 123.829L113.504 138.418L129.652 131.502Z" fill="#FFC6B2"/>
<path fill-rule="evenodd" clip-rule="evenodd" d="M109.182 143.084C107.036 137.903 111.099 131.378 118.257 128.504C125.419 125.629 132.959 127.498 135.109 132.676C137.254 137.856 130.049 145.642 126.028 147.256C122.006 148.871 111.326 148.262 109.182 143.084" fill="#FFC6B2"/>
<path fill-rule="evenodd" clip-rule="evenodd" d="M92.368 115.824C92.368 115.824 88.6883 115.624 88.28 118.037C87.8702 120.451 95.0246 120.451 97.6825 118.64L92.368 115.824Z" fill="#FFC6B2"/>
<path fill-rule="evenodd" clip-rule="evenodd" d="M94.2079 118.037C93.5088 113.675 88.7868 110.432 89.0221 106.182C91.2855 106.2 92.7391 103.44 91.7091 101.082C91.3035 100.155 90.6169 99.3619 90.178 98.4476C89.7406 97.5346 89.6243 96.3382 90.2957 95.8218C90.6141 95.5779 91.0446 95.5356 91.4572 95.4948C94.8129 95.1555 100.562 96.1461 103.651 95.0192C106.591 93.9468 109.742 91.8606 109.436 88.315C109.169 85.2273 106.399 82.7241 103.854 80.8328C102.396 79.7481 98.2309 76.9125 96.6596 77.17C94.2605 77.5625 93.6791 80.7129 93.506 83.3496C91.8282 81.7771 89.353 82.0292 87.8938 83.3087C86.4347 84.5882 85.7439 86.6213 85.1085 88.5835C84.4717 90.547 83.7975 92.5855 82.3578 93.8896C81.0163 95.105 78.8941 96.0248 79.1724 98.0919C79.5032 100.556 82.7731 101.432 84.2848 103.533C83.9124 103.018 83.5968 106.307 83.8114 106.865C84.4565 108.545 86.0665 109.657 87.2307 110.942C89.7101 113.681 90.9228 116.438 94.2079 118.037" fill="#FF7B5B"/>
<path fill-rule="evenodd" clip-rule="evenodd" d="M114.764 108.063L106.38 112.331C106.38 112.331 116.45 119.526 114.764 108.063" fill="white"/>
<path fill-rule="evenodd" clip-rule="evenodd" d="M103.23 109.755C103.688 110.611 103.01 111.848 101.715 112.519C100.421 113.189 99.0007 113.039 98.5425 112.183C98.0857 111.328 98.7626 110.092 100.057 109.42C101.353 108.75 102.772 108.899 103.23 109.755" fill="#FFB2A0"/>
<path fill-rule="evenodd" clip-rule="evenodd" d="M115.472 101.524C115.93 102.38 115.251 103.617 113.957 104.288C112.663 104.958 111.242 104.808 110.784 103.952C110.327 103.097 111.004 101.859 112.299 101.189C113.594 100.519 115.013 100.668 115.472 101.524" fill="#FFB2A0"/>
<path fill-rule="evenodd" clip-rule="evenodd" d="M108.911 107.761C108.872 107.713 109.029 107.51 109.392 107.252C109.738 106.989 110.34 106.706 110.787 106.232C111.23 105.772 111.389 104.815 110.711 104.68C110.006 104.444 109.206 105.24 108.288 105.996C108.061 106.181 107.837 106.365 107.614 106.546C107.406 106.734 106.969 107.01 106.515 106.954C105.65 106.816 105.281 106.248 104.949 105.868C104.285 105.028 103.875 104.15 103.648 103.389C103.198 101.852 103.4 100.86 103.508 100.868C103.659 100.862 103.709 101.815 104.281 103.167C104.569 103.839 104.999 104.602 105.626 105.323C105.932 105.688 106.317 106.029 106.591 106.04C106.706 106.045 106.796 106.007 107.012 105.828C107.232 105.647 107.454 105.463 107.678 105.278C108.14 104.91 108.54 104.538 109.069 104.192C109.583 103.851 110.315 103.636 110.971 103.855C111.672 104.036 112.083 104.84 111.961 105.399C111.882 105.969 111.594 106.388 111.267 106.695C110.577 107.263 109.959 107.401 109.57 107.573C109.172 107.721 108.953 107.814 108.911 107.761" fill="#FF7B5B"/>
<path fill-rule="evenodd" clip-rule="evenodd" d="M106.831 123.829C106.831 123.829 112.179 123.859 115.08 122.1C115.08 122.1 112.626 125.068 107.714 125.836L106.831 123.829Z" fill="#FFA192"/>
<path fill-rule="evenodd" clip-rule="evenodd" d="M109.151 100.223C109.102 100.484 108.355 100.564 107.564 100.907C106.763 101.226 106.184 101.699 105.961 101.552C105.733 101.433 106.11 100.493 107.193 100.045C108.274 99.5938 109.221 99.9781 109.151 100.223" fill="#22343D"/>
<path fill-rule="evenodd" clip-rule="evenodd" d="M98.6704 106.99C98.4682 106.843 98.7853 105.995 99.555 105.146C100.334 104.28 101.33 103.991 101.435 104.233C101.546 104.469 100.939 105.018 100.257 105.78C99.5633 106.539 98.8891 107.151 98.6704 106.99" fill="#22343D"/>
<path fill-rule="evenodd" clip-rule="evenodd" d="M94.6079 105.682C94.1746 105.366 93.8368 104.013 95.4953 102.19C97.169 100.325 99.0392 100.654 99.2635 101.172C99.5044 101.68 98.8814 102.403 97.4126 104.043C95.9217 105.677 95.0772 106.028 94.6079 105.682" fill="#FF7B5B"/>
<path fill-rule="evenodd" clip-rule="evenodd" d="M103.412 98.5002C103.172 98.0587 103.437 96.7737 105.593 95.8784C107.781 94.9532 109.238 95.9738 109.218 96.5039C109.214 97.0312 108.39 97.4005 106.468 98.2154C104.533 99.0152 103.671 98.9812 103.412 98.5002" fill="#FF7B5B"/>
<path fill-rule="evenodd" clip-rule="evenodd" d="M563.451 111.282C563.592 111.42 561.269 113.992 556.449 116.794C551.688 119.593 544.197 122.367 535.581 122.43C526.965 122.493 519.432 119.827 514.63 117.098C509.77 114.367 507.408 111.827 507.546 111.687C507.747 111.437 510.388 113.58 515.256 115.925C520.076 118.279 527.341 120.616 535.566 120.558C543.793 120.496 551.021 118.054 555.806 115.63C560.636 113.214 563.247 111.034 563.451 111.282" fill="#775298"/>
<path fill-rule="evenodd" clip-rule="evenodd" d="M510.886 107.396C510.755 107.681 508.183 106.63 503.85 105.679C501.69 105.178 499.069 104.791 496.151 104.434C493.222 104.115 489.984 103.861 486.564 103.621C483.144 103.386 479.87 103.115 476.896 102.752C473.923 102.364 471.251 101.902 469.05 101.316C464.631 100.181 462.128 98.8373 462.215 98.6478C462.33 98.3617 464.962 99.246 469.338 100.021C471.521 100.432 474.155 100.749 477.089 101.037C480.029 101.301 483.277 101.518 486.702 101.755C490.129 101.994 493.409 102.304 496.38 102.723C499.349 103.183 502.013 103.717 504.192 104.398C508.568 105.713 510.985 107.217 510.886 107.396" fill="#775298"/>
<mask id="mask0_0_574" style="mask-type:alpha" maskUnits="userSpaceOnUse" x="441" y="35" width="174" height="84">
<path fill-rule="evenodd" clip-rule="evenodd" d="M441.402 35.2054H614V118.441H441.402V35.2054Z" fill="white"/>
</mask>
<g mask="url(#mask0_0_574)">
<path fill-rule="evenodd" clip-rule="evenodd" d="M458.763 52.0647C466.978 50.3491 475.489 51.8262 483.772 53.1848C492.056 54.5433 500.655 55.7683 508.754 53.58C523.376 49.6297 534.475 35.089 549.638 35.2061C555.882 35.2538 561.767 37.8783 567.849 39.2668C575.403 40.9919 583.271 40.8066 590.923 42.037C598.575 43.2675 606.48 46.2967 610.805 52.6316C615.935 60.1492 614.529 70.7533 609.145 78.0979C603.761 85.4439 595.139 89.916 586.306 92.4505C580.144 94.2179 573.579 95.2399 568.247 98.7568C562.853 102.315 559.332 108.04 554.306 112.086C541.696 122.236 522.071 119.327 509.046 109.699C505.773 107.28 502.74 104.473 499.063 102.703C484.108 95.4974 462.599 105.036 449.719 91.9259C436.64 78.6116 438.503 56.2943 458.763 52.0647" fill="#775298"/>
</g>
<path fill-rule="evenodd" clip-rule="evenodd" d="M454.658 309.916C454.658 309.916 468.361 338.824 469.964 333.472C471.563 328.117 471.034 315.26 470.175 313.425C469.313 311.589 463.712 303.48 463.712 303.48L454.658 309.916Z" fill="#FFB2A0"/>
<path fill-rule="evenodd" clip-rule="evenodd" d="M553.739 76.1511C555.007 77.7495 554.16 76.0325 555.596 78.3381C561.562 78.1337 565.567 73.1642 565.567 73.1642C565.567 73.1642 575.038 73.4108 574.928 71.7457C574.82 70.0778 565.85 70.7005 565.85 70.7005C565.85 70.7005 575.339 67.7668 574.819 66.3019C574.301 64.8385 563.345 69.5069 563.345 69.5069C563.345 69.5069 574.401 62.7523 572.767 61.669C571.135 60.5884 560.498 66.4845 560.498 66.4845C560.498 66.4845 569.742 59.0105 568.357 58.0471C566.974 57.0837 554.15 66.8116 554.15 66.8116C554.337 62.026 550.85 62.1936 550.85 62.1936L550.994 73.8782C550.994 73.8782 553.155 75.4153 553.739 76.1511" fill="#FFC6B2"/>
<path fill-rule="evenodd" clip-rule="evenodd" d="M413.36 23.2669C411.333 23.6349 412.905 22.9413 410.274 23.7316C405.954 19.6764 406.527 13.3033 406.527 13.3033C406.527 13.3033 399.281 7.29956 400.483 6.12633C401.691 4.95037 407.978 11.2785 407.978 11.2785C407.978 11.2785 402.863 2.88189 404.239 2.12699C405.613 1.37208 410.659 12.0225 410.659 12.0225C410.659 12.0225 406.946 -0.253542 408.898 0.00399624C410.848 0.261535 414.826 11.6205 414.826 11.6205C414.826 11.6205 412.955 -0.00826749 414.637 0.175689C416.321 0.358282 419.352 16.0136 419.352 16.0136C422.439 12.3127 424.932 14.7178 424.932 14.7178L417.106 23.1893C417.106 23.1893 414.292 23.0993 413.36 23.2669" fill="#FFC6B2"/>
<path fill-rule="evenodd" clip-rule="evenodd" d="M462.515 72.0751C459.895 71.6513 453.559 75.7965 450.388 82.5524C448.614 86.3337 447.393 90.175 449.429 96.3246C450.388 99.2175 452.396 99.5799 452.844 100.876C453.41 102.516 451.535 107.688 451.535 107.688L459.014 110.661C459.5 107.108 460.051 103.534 463.729 101.992C465.106 101.414 466.578 101.049 467.877 100.316C471.381 98.3386 473.253 94.0136 474.692 90.4721C475.767 87.8272 469.086 73.1352 462.515 72.0751" fill="#FFC6B2"/>
<path fill-rule="evenodd" clip-rule="evenodd" d="M453.611 172.479L441.08 167.529C441.08 167.529 403.89 235.412 404.046 254.246C404.199 273.079 455.123 310.788 455.123 310.788L463.711 303.481C463.711 303.481 447.989 276.497 439.585 266.983C431.179 257.466 453.611 172.479 453.611 172.479" fill="#FFB2A0"/>
<path fill-rule="evenodd" clip-rule="evenodd" d="M515.831 249.807C515.831 249.807 543.45 236.908 537.9 235.769C532.35 234.635 519.371 236.198 517.583 237.19C515.794 238.184 508.038 244.336 508.038 244.336L515.831 249.807Z" fill="#FFC6B2"/>
<path fill-rule="evenodd" clip-rule="evenodd" d="M465.92 171.89L446.91 178.697C446.91 178.697 427.895 261.022 435.154 273.947C442.411 286.877 462.799 278.321 491.834 262.723L516.155 249.655L508.037 244.337C508.037 244.337 479.736 249.796 471.789 255.238C471.789 255.238 475.936 243.671 481.467 227.342C486.996 211.012 490.81 194.343 465.92 171.89" fill="#FFC6B2"/>
<path fill-rule="evenodd" clip-rule="evenodd" d="M442.522 115.804C442.522 110.334 444.31 106.379 449.867 106.379C455.424 106.379 463.106 108.296 463.106 113.767C463.106 119.239 458.727 128.122 453.167 128.122C447.611 128.122 442.522 121.276 442.522 115.804" fill="#FFC6B2"/>
<path fill-rule="evenodd" clip-rule="evenodd" d="M446.91 105.595C446.91 105.595 429.63 87.1883 426.174 69.1565C422.716 51.1274 416.843 21.8702 416.843 21.8702L410.276 23.7316C410.276 23.7316 407.164 63.7155 410.276 69.8378C413.385 75.9615 428.584 116.729 433.212 127.435L446.91 105.595Z" fill="#FFC6B2"/>
<path fill-rule="evenodd" clip-rule="evenodd" d="M465.475 119.94C465.475 119.94 466.804 114.215 488.654 106.432C510.505 98.6518 551.729 73.4308 551.729 73.4308L555.842 78.0624C555.842 78.0624 533.443 103.529 520.412 107.995C507.381 112.464 479.703 130.076 476.856 131.485C472.549 133.617 472.601 136.3 465.475 119.94" fill="#FFC6B2"/>
<path fill-rule="evenodd" clip-rule="evenodd" d="M446.91 105.595C446.91 105.595 429.354 111.195 429.354 137.49C429.354 137.49 429.365 173.503 433.503 180.055C433.503 180.055 440.23 181.751 448.616 180.055C457.409 178.275 465.92 171.89 465.92 171.89L479.731 131.08L478.079 111.96L459.302 108.391C459.302 108.391 464.688 133.168 445.199 122.516C441.412 120.446 450.771 106.389 450.771 106.389L446.91 105.595Z" fill="#22343D"/>
<path fill-rule="evenodd" clip-rule="evenodd" d="M432.055 126.98L423.404 109.24C423.404 109.24 424.645 98.4781 440.526 94.6218C440.526 94.6218 442.132 100.046 443.893 102.119C445.652 104.19 450.777 106.395 450.777 106.395L432.055 126.98Z" fill="#22343D"/>
<path fill-rule="evenodd" clip-rule="evenodd" d="M464.761 134.111L492.27 128.561C492.27 128.561 497.053 118.807 485.712 107.204C485.712 107.204 464.254 108.48 461.477 108.707C458.743 108.931 460.62 111.004 460.62 111.004L464.761 134.111Z" fill="#22343D"/>
<path fill-rule="evenodd" clip-rule="evenodd" d="M433.459 171.283C433.459 171.283 407.44 218.633 403.141 227.094C403.141 227.094 479.903 261.801 511.063 220.024C511.063 220.024 493.338 183.097 465.936 169.039L454.115 165.554L433.921 171.055" fill="#22343D"/>
<path fill-rule="evenodd" clip-rule="evenodd" d="M473.685 90.0244C473.685 90.0244 476.648 87.107 478.472 89.1264C480.295 91.1458 471.861 94.0632 471.861 94.0632L473.685 90.0244Z" fill="#FFC6B2"/>
<path fill-rule="evenodd" clip-rule="evenodd" d="M527.898 50.2356C527.927 50.3365 526.782 50.8243 524.597 51.3353C522.416 51.8517 519.181 52.3205 515.162 52.4009C511.146 52.4799 506.37 52.1283 501.143 51.4307C495.911 50.748 490.228 49.7451 484.249 49.1033C478.28 48.4751 472.54 48.3607 467.457 49.1687C462.372 49.9631 457.971 51.6024 454.607 53.5169C451.243 55.4464 448.902 57.5871 447.466 59.2072C446.02 60.8288 445.37 61.8644 445.223 61.7772C445.143 61.7363 445.577 60.5699 446.887 58.7521C448.188 56.9398 450.485 54.5484 453.91 52.3859C457.332 50.237 461.881 48.3906 467.166 47.4668C472.459 46.5293 478.378 46.6015 484.451 47.2419C490.53 47.8946 496.22 48.9548 501.391 49.7233C506.56 50.5068 511.232 50.9865 515.166 51.0764C523.053 51.293 527.826 49.9154 527.898 50.2356" fill="#775298"/>
<path fill-rule="evenodd" clip-rule="evenodd" d="M458.591 88.3682C458.583 88.4827 457.739 88.5631 456.45 88.142C456.131 88.0317 455.755 87.8872 455.405 87.5711C455.232 87.413 455.071 87.2032 454.973 86.9511C454.831 86.5982 454.843 86.1976 454.982 85.8923C455.024 85.831 455.021 85.6852 455.103 85.6825L455.353 85.6743C455.514 85.6525 455.704 85.7043 455.889 85.7383C456.23 85.8024 456.339 85.7929 456.581 85.8092C457.006 85.8187 457.446 85.7751 457.887 85.6798C459.686 85.3064 460.891 84.0173 461.431 82.9572C461.997 81.8903 462.047 81.0877 462.198 81.0972C462.304 81.0836 462.515 81.9366 462.047 83.2243C461.809 83.8552 461.395 84.5787 460.726 85.2137C460.062 85.8474 459.141 86.3679 458.096 86.5927C457.574 86.7072 457.049 86.7508 456.544 86.7249C456.324 86.714 455.978 86.6704 455.877 86.6486C455.784 86.6336 455.795 86.6132 455.777 86.6241C455.766 86.635 455.76 86.6527 455.762 86.6786C455.799 86.8012 455.867 86.9184 455.962 87.0233C456.155 87.2373 456.435 87.3967 456.707 87.5302C457.822 88.0685 458.612 88.2279 458.591 88.3682" fill="#FF7B5B"/>
<path fill-rule="evenodd" clip-rule="evenodd" d="M452.421 88.6836L462.554 92.6134C462.554 92.6134 453.649 98.6581 452.421 88.6836" fill="white"/>
<path fill-rule="evenodd" clip-rule="evenodd" d="M466.881 90.5746C466.521 91.2477 465.406 91.3649 464.388 90.8376C463.371 90.3116 462.838 89.3387 463.196 88.6669C463.556 87.9937 464.673 87.8752 465.691 88.4025C466.708 88.9299 467.241 89.9014 466.881 90.5746" fill="#FFB2A0"/>
<path fill-rule="evenodd" clip-rule="evenodd" d="M455.572 84.6721C455.265 85.3698 454.162 85.5715 453.107 85.1218C452.052 84.6721 451.444 83.7428 451.751 83.0452C452.057 82.3475 453.162 82.1458 454.217 82.5955C455.272 83.0452 455.88 83.9745 455.572 84.6721" fill="#FFB2A0"/>
<path fill-rule="evenodd" clip-rule="evenodd" d="M451.818 99.6227C451.818 99.6227 455.371 102.551 459.076 101.608C459.076 101.608 457.799 103.494 452.88 102.802C452.88 102.802 453.288 100.724 451.818 99.6227" fill="#FFA192"/>
<path fill-rule="evenodd" clip-rule="evenodd" d="M465.909 84.3102C465.909 84.7463 465.549 85.1006 465.106 85.1006C464.663 85.1006 464.303 84.7463 464.303 84.3102C464.303 83.8742 464.663 83.5199 465.106 83.5199C465.549 83.5199 465.909 83.8742 465.909 84.3102" fill="#22343D"/>
<path fill-rule="evenodd" clip-rule="evenodd" d="M459.339 81.9809C459.339 82.4169 458.979 82.7712 458.536 82.7712C458.093 82.7712 457.734 82.4169 457.734 81.9809C457.734 81.5448 458.093 81.1906 458.536 81.1906C458.979 81.1906 459.339 81.5448 459.339 81.9809" fill="#22343D"/>
<path fill-rule="evenodd" clip-rule="evenodd" d="M468.489 82.2051C468.241 82.3086 467.762 81.7377 467.036 81.2757C466.326 80.7934 465.606 80.5767 465.608 80.3124C465.584 80.0589 466.589 79.8532 467.565 80.4977C468.543 81.1381 468.736 82.1288 468.489 82.2051" fill="#775298"/>
<path fill-rule="evenodd" clip-rule="evenodd" d="M456.91 78.3707C456.893 78.124 457.756 77.8134 458.91 77.8433C460.086 77.8679 460.954 78.4293 460.833 78.6636C460.722 78.9007 459.904 78.7986 458.873 78.7795C457.836 78.7495 456.927 78.6391 456.91 78.3707" fill="#775298"/>
<path fill-rule="evenodd" clip-rule="evenodd" d="M460.528 321.662C460.528 321.662 464.743 336.389 469.096 335.183C473.448 333.979 470.176 313.425 470.176 313.425L465.833 306.669C465.833 306.669 469.913 341.074 460.528 321.662" fill="#22343D"/>
<path fill-rule="evenodd" clip-rule="evenodd" d="M513.682 240.014C513.682 240.014 516.747 236.722 520.462 236.174C524.179 235.625 537.462 234.07 539.413 235.808C541.365 237.545 528.647 243.37 528.647 243.37C528.647 243.37 533.078 240.591 531.238 239.558C527.986 237.728 513.682 240.014 513.682 240.014" fill="#22343D"/>
<path fill-rule="evenodd" clip-rule="evenodd" d="M508.412 243.957L512.571 252.268L514.84 251.028L509.294 242.841L508.412 243.957Z" fill="#22343D"/>
<path fill-rule="evenodd" clip-rule="evenodd" d="M461.91 300.149L451.701 309.205L454.726 311.686L463.295 302.506L461.91 300.149Z" fill="#22343D"/>
<path fill-rule="evenodd" clip-rule="evenodd" d="M248.49 209.993C245.587 202.902 244.472 195.007 240.14 188.661C233.906 179.53 221.933 174.999 216.874 165.188C214.726 161.021 214.052 156.255 214.03 151.582C213.988 142.338 216.8 132.511 224.054 126.636C232.389 119.886 244.895 119.98 254.658 124.515C264.417 129.05 271.875 137.281 278.215 145.88C284.557 154.476 290.108 163.703 297.493 171.451C302.968 177.196 309.462 182.15 313.586 188.899C324.892 207.403 313.259 230.814 293.299 237.492C275.761 243.359 254.558 224.819 248.49 209.993" fill="#22343D"/>
<path fill-rule="evenodd" clip-rule="evenodd" d="M223.504 340.493C225.24 341.898 223.347 340.925 225.872 342.544C225.308 348.753 219.473 352.665 219.473 352.665C219.473 352.665 219.227 362.551 217.352 362.348C215.474 362.148 216.677 352.829 216.677 352.829C216.677 352.829 212.835 362.566 211.21 361.946C209.586 361.329 215.467 350.155 215.467 350.155C215.467 350.155 207.224 361.322 206.092 359.562C204.961 357.802 212.214 347.027 212.214 347.027C212.214 347.027 203.258 356.268 202.246 354.772C201.236 353.28 212.933 340.427 212.933 340.427C207.519 340.369 207.903 336.741 207.903 336.741L221.09 337.511C221.09 337.511 222.706 339.844 223.504 340.493" fill="#FFC6B2"/>
<path fill-rule="evenodd" clip-rule="evenodd" d="M349.488 154.045C351.744 154.435 349.993 153.699 352.921 154.537C357.73 150.236 357.092 143.479 357.092 143.479C357.092 143.479 365.157 137.113 363.82 135.869C362.475 134.622 355.478 141.33 355.478 141.33C355.478 141.33 361.171 132.428 359.639 131.627C358.111 130.827 352.495 142.121 352.495 142.121C352.495 142.121 356.627 129.103 354.454 129.376C352.286 129.65 347.857 141.694 347.857 141.694C347.857 141.694 349.939 129.364 348.066 129.558C346.192 129.752 343.16 145.906 343.16 145.906C338.744 142.369 335.653 144.633 335.653 144.633L345.318 153.962C345.318 153.962 348.451 153.868 349.488 154.045" fill="#FFC6B2"/>
<path fill-rule="evenodd" clip-rule="evenodd" d="M294.28 208.035C298.359 207.409 310.801 215.345 307.635 231.461C307.37 232.814 305.575 235.792 305.127 237.024C304.563 238.584 308.964 244.295 308.964 244.295L297.602 247.868C297.118 244.49 297.933 239.553 294.262 238.086C292.888 237.537 291.418 237.189 290.122 236.493C286.624 234.612 284.757 230.498 283.32 227.131C282.247 224.615 281.43 221.908 281.46 219.178C281.535 212.302 287.722 209.044 294.28 208.035" fill="#FFC6B2"/>
<path fill-rule="evenodd" clip-rule="evenodd" d="M317.031 252.173C317.031 246.372 315.162 244.158 308.977 244.158C302.792 244.158 294.627 246.372 294.627 252.173C294.627 257.975 298.994 265.235 305.183 265.235C311.367 265.235 317.031 257.975 317.031 252.173" fill="#FFC6B2"/>
<path fill-rule="evenodd" clip-rule="evenodd" d="M312.147 241.346C312.147 241.346 331.38 221.828 335.227 202.707C339.075 183.588 345.612 152.564 345.612 152.564L352.922 154.537C352.922 154.537 356.385 196.937 352.922 203.429C349.461 209.924 329.84 255.018 330.225 266.56L312.147 241.346Z" fill="#FFC6B2"/>
<path fill-rule="evenodd" clip-rule="evenodd" d="M277.863 250.797C277.863 250.797 271.323 251.879 261.321 274.247C251.319 296.613 220.545 338.252 220.545 338.252L225.546 342.786C225.546 342.786 255.551 320.782 261.321 307.435C267.09 294.088 274.399 277.494 277.863 278.213C281.324 278.937 295.942 259.093 277.863 250.797" fill="#FFC6B2"/>
<path fill-rule="evenodd" clip-rule="evenodd" d="M329.354 269.542L338.309 245.213C338.309 245.213 336.927 233.802 319.252 229.711L309.239 243.911L329.354 269.542Z" fill="#FF7B5B"/>
<path fill-rule="evenodd" clip-rule="evenodd" d="M280.848 248.93C280.848 248.93 270.283 249.806 261.719 268.32C261.719 268.32 271.137 281.118 278.027 281.55C278.027 281.55 303.617 260.02 280.848 248.93" fill="#FF7B5B"/>
<path fill-rule="evenodd" clip-rule="evenodd" d="M309.878 468.488C309.878 468.488 294.626 499.143 292.843 493.467C291.063 487.789 291.651 474.155 292.606 472.209C293.566 470.262 299.801 461.663 299.801 461.663L309.878 468.488Z" fill="#FFC6B2"/>
<path fill-rule="evenodd" clip-rule="evenodd" d="M311.044 322.747L324.991 317.498C324.991 317.498 366.383 389.483 366.212 409.455C366.04 429.425 309.362 469.413 309.362 469.413L299.801 461.663C299.801 461.663 326.666 422.785 336.02 412.696C340.698 407.65 307.21 382.923 302.138 359.132C297.066 335.34 311.044 322.747 311.044 322.747" fill="#654287"/>
<path fill-rule="evenodd" clip-rule="evenodd" d="M227.184 452.429C227.184 452.429 198.655 473.127 199.842 467.318C201.032 461.504 208.214 449.638 210.015 448.318C211.819 447 221.56 442.034 221.56 442.034L227.184 452.429Z" fill="#FFC6B2"/>
<path fill-rule="evenodd" clip-rule="evenodd" d="M273.096 348.237L314.361 324.698C314.361 324.698 315.999 406.467 306.093 424.147C296.187 441.827 226.273 453.028 226.273 453.028L221.559 442.035C221.559 442.035 264.693 416.739 277.936 411.788C291.18 406.835 273.096 348.237 273.096 348.237" fill="#775298"/>
<path fill-rule="evenodd" clip-rule="evenodd" d="M297.672 308.596C297.672 308.596 267.288 319.185 273.097 348.238C278.904 377.289 288.585 382.736 288.585 382.736L306.01 354.593L323.504 317.738L306.01 315.553L297.672 308.596Z" fill="#775298"/>
<path fill-rule="evenodd" clip-rule="evenodd" d="M312.147 241.346C312.147 241.346 334.516 253.686 334.516 281.57C334.516 281.57 331.674 313.359 327.069 320.304C327.069 320.304 319.582 322.104 310.247 320.304C300.46 318.418 290.988 311.647 290.988 311.647L283.344 272.728L277.396 250.003L280.621 248.957L297.445 247.137C297.445 247.137 295.028 271.875 313.813 259.591C317.77 257.003 308.888 244.104 308.888 244.104L312.147 241.346Z" fill="#FF7B5B"/>
<path fill-rule="evenodd" clip-rule="evenodd" d="M325.839 135.978L372.741 162.909L399.124 113.857L355.153 89.8119L325.839 135.978Z" fill="white"/>
<path fill-rule="evenodd" clip-rule="evenodd" d="M391.088 370.786L424.632 350.347L396.919 302.732L366.255 322.303L391.088 370.786Z" fill="white"/>
<path fill-rule="evenodd" clip-rule="evenodd" d="M225.925 167.89C226.013 167.813 227.049 168.738 228.687 170.625C230.317 172.515 232.542 175.389 234.775 179.267C237.016 183.129 239.234 188.029 240.818 193.716C242.457 199.362 243.556 205.708 246.076 211.82C247.384 214.84 248.969 217.651 250.856 220.136C252.759 222.606 254.87 224.772 257.044 226.662C261.485 230.341 266.138 232.872 270.284 234.334C274.426 235.816 277.974 236.481 280.441 236.72C282.905 236.988 284.298 237.028 284.299 237.187C284.306 237.287 282.918 237.495 280.387 237.447C277.858 237.428 274.177 236.953 269.841 235.585C265.502 234.236 260.6 231.739 255.913 227.98C253.613 226.048 251.379 223.81 249.366 221.239C247.37 218.653 245.684 215.696 244.315 212.53C241.69 206.141 240.653 199.739 239.126 194.169C237.668 188.579 235.642 183.769 233.593 179.899C231.556 176.018 229.535 173.076 228.102 171.071C226.661 169.069 225.817 167.984 225.925 167.89" fill="#22343D"/>
<path fill-rule="evenodd" clip-rule="evenodd" d="M283.548 136.383C283.893 136.331 284.228 140.875 286.811 147.597C288.102 150.945 290.02 154.797 292.777 158.659C294.154 160.592 295.739 162.497 297.533 164.396C299.315 166.302 301.256 168.238 303.09 170.41C306.768 174.794 309.299 179.532 311.681 183.714C314.047 187.937 315.931 191.954 316.889 195.547C317.889 199.129 317.947 202.213 317.63 204.258C317.299 206.313 316.78 207.354 316.694 207.326C316.529 207.283 316.798 206.184 316.892 204.193C316.974 202.205 316.716 199.308 315.599 195.922C314.519 192.522 312.577 188.69 310.153 184.557C307.692 180.426 305.139 175.783 301.625 171.605C299.862 169.515 297.949 167.586 296.156 165.632C294.353 163.687 292.714 161.662 291.331 159.636C288.557 155.579 286.705 151.536 285.545 148.041C284.358 144.547 283.853 141.599 283.613 139.567C283.377 137.531 283.44 136.392 283.548 136.383" fill="#22343D"/>
<path fill-rule="evenodd" clip-rule="evenodd" d="M297.927 225.553C297.909 225.422 298.674 225.302 299.395 224.468C299.561 224.276 299.728 223.995 299.726 223.832C299.721 223.656 299.597 223.351 299.382 223.175C299.159 222.979 298.912 222.883 298.585 222.916C298.247 222.941 297.836 223.105 297.299 223.184C296.122 223.338 295.204 222.684 294.601 222.154C293.981 221.597 293.507 221.032 293.154 220.525C292.451 219.504 292.232 218.767 292.34 218.712C292.465 218.647 292.888 219.257 293.682 220.113C294.077 220.538 294.577 221.026 295.167 221.496C295.748 221.953 296.46 222.368 297.17 222.258C297.547 222.21 297.985 222.037 298.52 222.002C299.064 221.949 299.669 222.195 300.001 222.563C300.354 222.939 300.552 223.382 300.511 223.907C300.405 224.444 300.116 224.694 299.877 224.929C298.842 225.82 297.894 225.674 297.927 225.553" fill="#FF7B5B"/>
<path fill-rule="evenodd" clip-rule="evenodd" d="M303.471 226.321L294.463 229.545C294.463 229.545 302.106 236.126 303.471 226.321" fill="white"/>
<path fill-rule="evenodd" clip-rule="evenodd" d="M293.564 225.772C293.924 226.445 293.391 227.418 292.373 227.944C291.356 228.471 290.24 228.354 289.88 227.681C289.52 227.009 290.053 226.036 291.071 225.509C292.088 224.981 293.204 225.099 293.564 225.772" fill="#FFB2A0"/>
<path fill-rule="evenodd" clip-rule="evenodd" d="M304.243 220.382C304.537 221.085 303.915 222.003 302.853 222.435C301.79 222.869 300.689 222.649 300.394 221.946C300.099 221.243 300.722 220.324 301.785 219.893C302.847 219.461 303.948 219.679 304.243 220.382" fill="#FFB2A0"/>
<path fill-rule="evenodd" clip-rule="evenodd" d="M294.729 238.321C294.729 238.321 297.743 238.925 301.585 237.981C301.585 237.981 299.691 239.792 296.597 240.213C296.597 240.213 295.903 238.951 294.729 238.321" fill="#FFA192"/>
<path fill-rule="evenodd" clip-rule="evenodd" d="M297.808 218.391C298.146 218.673 298.188 219.172 297.901 219.504C297.614 219.837 297.109 219.878 296.77 219.596C296.432 219.315 296.391 218.816 296.677 218.482C296.964 218.15 297.471 218.109 297.808 218.391" fill="#22343D"/>
<path fill-rule="evenodd" clip-rule="evenodd" d="M291.755 221.819C292.093 222.101 292.134 222.6 291.848 222.932C291.562 223.265 291.056 223.306 290.717 223.024C290.379 222.741 290.337 222.244 290.624 221.91C290.91 221.578 291.417 221.537 291.755 221.819" fill="#22343D"/>
<path fill-rule="evenodd" clip-rule="evenodd" d="M297.844 215.093C297.763 215.346 297.012 215.337 296.185 215.583C295.352 215.804 294.719 216.205 294.514 216.032C294.303 215.887 294.793 214.999 295.924 214.683C297.052 214.362 297.945 214.858 297.844 215.093" fill="#22343D"/>
<path fill-rule="evenodd" clip-rule="evenodd" d="M287.387 221.309C287.185 221.162 287.502 220.315 288.272 219.467C289.05 218.6 290.047 218.312 290.15 218.553C290.262 218.788 289.655 219.338 288.972 220.099C288.28 220.858 287.606 221.471 287.387 221.309" fill="#22343D"/>
<path fill-rule="evenodd" clip-rule="evenodd" d="M283.99 227.893C283.99 227.893 281.101 225.504 279.713 227.665C278.328 229.826 285.954 230.964 285.954 230.964L283.99 227.893Z" fill="#FFC6B2"/>
<path fill-rule="evenodd" clip-rule="evenodd" d="M214.52 445.702C214.52 445.702 210.378 447.475 209.298 448.539C208.217 449.602 198.312 466.441 199.573 468.568C200.834 470.696 210.767 463.475 210.767 463.475C210.767 463.475 202.455 465.024 214.52 445.702" fill="#775298"/>
<path fill-rule="evenodd" clip-rule="evenodd" d="M295.346 467.97C295.346 467.97 292.404 471.1 291.95 472.537C291.496 473.972 290.683 493.414 292.805 494.72C294.926 496.027 300.724 485.299 300.724 485.299C300.724 485.299 293.792 490.643 295.346 468.015" fill="#775298"/>
</svg>
